<svg width="28" height="22" viewBox="0 0 28 22" fill="none" xmlns="http://www.w3.org/2000/svg">
<path d="M2.33334 9.30572H22.1L16.05 2.84274C15.7671 2.54002 15.631 2.14975 15.6716 1.75778C15.7123 1.36581 15.9263 1.00425 16.2667 0.752644C16.607 0.501035 17.0458 0.379985 17.4865 0.416124C17.9273 0.452263 18.3338 0.642631 18.6167 0.945348L26.95 9.83936C27.0061 9.9101 27.0562 9.98442 27.1 10.0617C27.1 10.1358 27.1 10.1803 27.2167 10.2544C27.2922 10.4244 27.3318 10.6053 27.3333 10.7881C27.3318 10.9708 27.2922 11.1517 27.2167 11.3217C27.2167 11.3958 27.2167 11.4403 27.1 11.5144C27.0562 11.5917 27.0061 11.666 26.95 11.7368L18.6167 20.6308C18.46 20.7981 18.2637 20.9327 18.0419 21.0249C17.8201 21.1171 17.5782 21.1648 17.3333 21.1644C16.9439 21.1651 16.5665 21.0445 16.2667 20.8235C16.0979 20.699 15.9584 20.5462 15.8562 20.3737C15.7539 20.2013 15.6909 20.0126 15.6708 19.8184C15.6507 19.6243 15.6738 19.4285 15.7389 19.2423C15.8039 19.0561 15.9097 18.8832 16.05 18.7334L22.1 12.2704H2.33334C1.89132 12.2704 1.46739 12.1142 1.15483 11.8362C0.84227 11.5582 0.666676 11.1812 0.666676 10.7881C0.666676 10.3949 0.84227 10.0179 1.15483 9.73989C1.46739 9.46189 1.89132 9.30572 2.33334 9.30572Z" fill="white"/>
</svg>
