<svg width="28" height="22" viewBox="0 0 28 22" fill="none" xmlns="http://www.w3.org/2000/svg">
<path d="M25.6667 9.30572H5.89999L11.95 2.84274C12.2329 2.54002 12.369 2.14975 12.3284 1.75778C12.2877 1.36581 12.0737 1.00425 11.7333 0.752644C11.393 0.501035 10.9542 0.379985 10.5135 0.416124C10.0727 0.452263 9.66622 0.642631 9.38332 0.945348L1.04999 9.83936C0.993924 9.9101 0.943789 9.98442 0.89999 10.0617C0.89999 10.1358 0.89999 10.1803 0.783323 10.2544C0.707779 10.4244 0.668225 10.6053 0.666656 10.7881C0.668225 10.9708 0.707779 11.1517 0.783323 11.3217C0.783323 11.3958 0.783323 11.4403 0.89999 11.5144C0.943789 11.5917 0.993924 11.666 1.04999 11.7368L9.38332 20.6308C9.54003 20.7981 9.73626 20.9327 9.95807 21.0249C10.1799 21.1171 10.4218 21.1648 10.6667 21.1644C11.0561 21.1651 11.4335 21.0445 11.7333 20.8235C11.9021 20.699 12.0416 20.5462 12.1438 20.3737C12.2461 20.2013 12.3091 20.0126 12.3292 19.8184C12.3493 19.6243 12.3262 19.4285 12.2611 19.2423C12.1961 19.0561 12.0903 18.8832 11.95 18.7334L5.89999 12.2704H25.6667C26.1087 12.2704 26.5326 12.1142 26.8452 11.8362C27.1577 11.5582 27.3333 11.1812 27.3333 10.7881C27.3333 10.3949 27.1577 10.0179 26.8452 9.73989C26.5326 9.46189 26.1087 9.30572 25.6667 9.30572Z" fill="white"/>
</svg>
