<svg width="14" height="13" viewBox="0 0 14 13" fill="none" xmlns="http://www.w3.org/2000/svg">
<path d="M10.2323 11.7284L10.2293 11.7284C7.69842 11.7253 5.27811 10.7918 3.49772 9.1417C1.7185 7.49265 0.724257 5.26422 0.720929 2.94728C0.721013 2.34278 0.979841 1.7558 1.45262 1.31762C1.92657 0.878338 2.57592 0.626454 3.25922 0.626465L3.26225 0.626443C3.40285 0.625451 3.54314 0.63728 3.68104 0.661721L3.68933 0.663189L3.69766 0.664332C3.83007 0.682491 3.95999 0.712621 4.08555 0.754186L4.08555 0.754192L4.08771 0.754893C4.12703 0.767681 4.15841 0.788605 4.18053 0.812262L4.49461 0.518568L4.18053 0.812263C4.20243 0.83569 4.2145 0.860787 4.21943 0.883945L4.21922 0.88399L4.22249 0.897262L5.10642 4.48529C5.10644 4.48534 5.10645 4.4854 5.10646 4.48545C5.11184 4.50755 5.11125 4.53022 5.10446 4.5525C5.09758 4.57505 5.08366 4.59917 5.06046 4.62119L5.06036 4.62109L5.05261 4.62883C5.04417 4.63725 5.03975 4.64155 5.03771 4.6435C5.03595 4.6447 5.03236 4.64706 5.02624 4.65077C5.01612 4.6569 5.00072 4.66574 4.97706 4.67845C4.87625 4.73261 4.6873 4.82458 4.28555 5.01832L3.89504 5.20665L4.08638 5.5957C4.76989 6.98547 5.96495 8.09365 7.44621 8.72627L7.80017 8.87744L7.98965 8.54242C8.20221 8.16659 8.30237 7.99111 8.36094 7.89795C8.38264 7.86344 8.39309 7.84928 8.39649 7.8449C8.39874 7.84289 8.4034 7.83878 8.41208 7.83131L8.41217 7.83141L8.42023 7.82411C8.44446 7.80217 8.47698 7.78384 8.51595 7.77363L8.40694 7.35745L8.51596 7.77363C8.55489 7.76343 8.59657 7.76235 8.6364 7.77068C8.63649 7.7707 8.63658 7.77072 8.63666 7.77073L12.5067 8.58974C12.5068 8.58977 12.507 8.5898 12.5071 8.58984C12.5474 8.59857 12.5816 8.61603 12.6076 8.63776L12.8837 8.30781L12.6076 8.63776C12.6335 8.65943 12.6497 8.68395 12.6582 8.70708L12.6582 8.70709L12.6601 8.71201C12.7048 8.82862 12.7385 8.94833 12.7608 9.0698C12.7821 9.19407 12.7928 9.31961 12.7929 9.44528C12.7821 10.0462 12.5159 10.6264 12.04 11.057C11.5621 11.4894 10.9127 11.7339 10.2323 11.7284Z" stroke="#131312" stroke-width="0.860437"/>
</svg>
